<svg width="406" height="401" viewBox="0 0 406 401" fill="none" xmlns="http://www.w3.org/2000/svg">
<path d="M245.805 399.037C248.37 399.679 251.095 400 253.981 400C256.867 400 259.592 399.679 262.157 399.037L405 355.239C405 337.912 400.111 324.997 390.331 316.494C380.551 307.991 366.524 303.739 348.248 303.739H264.081C249.652 303.739 238.511 303.017 230.655 301.574C222.799 300.13 216.306 298.606 211.176 297.001L181.838 286.894C179.914 286.252 178.551 285.049 177.75 283.284C176.949 281.52 176.868 279.674 177.51 277.749C178.151 275.824 179.353 274.46 181.117 273.658C182.88 272.856 184.724 272.775 186.648 273.417L215.024 282.562C222.719 285.129 229.773 286.894 236.186 287.856C242.599 288.819 249.973 289.3 258.31 289.3H293.419C295.984 289.3 298.068 288.499 299.671 286.894C301.275 285.289 302.076 283.204 302.076 280.637C302.076 273.257 299.511 265.957 294.381 258.738C289.251 251.518 281.876 246.144 272.257 242.614L154.424 198.334C152.82 197.692 151.137 197.211 149.374 196.89C147.611 196.57 145.927 196.409 144.324 196.409H104.405V358.608L245.805 399.037ZM1 357.164C1 365.185 3.80559 372.005 9.41667 377.619C15.0277 383.234 21.8413 386.042 29.8571 386.042H46.2095C54.2254 386.042 61.0389 383.234 66.65 377.619C72.2611 372.005 75.0667 365.185 75.0667 357.164V225.287C75.0667 217.266 72.2611 210.447 66.65 204.832C61.0389 199.217 54.2254 196.409 46.2095 196.409H29.8571C21.8413 196.409 15.0277 199.217 9.41667 204.832C3.80559 210.447 1 217.266 1 225.287V357.164ZM292.457 193.521C288.93 193.521 285.403 192.799 281.876 191.355C278.349 189.911 275.143 187.906 272.257 185.339L213.581 128.064C203.962 118.758 195.946 108.41 189.533 97.0199C183.12 85.6294 179.914 73.1954 179.914 59.7189C179.914 43.3546 185.606 29.4771 196.988 18.0863C208.37 6.69545 222.238 1 238.59 1C249.492 1 259.432 3.80763 268.409 9.4228C277.387 15.038 285.403 22.0169 292.457 30.3595C299.511 22.0169 307.527 15.038 316.505 9.4228C325.482 3.80763 335.423 1 346.324 1C362.676 1 376.544 6.69545 387.926 18.0863C399.308 29.4771 405 43.3546 405 59.7189C405 73.1954 401.794 85.6294 395.381 97.0199C388.968 108.41 380.952 118.758 371.333 128.064L312.657 185.339C309.771 187.906 306.565 189.911 303.038 191.355C299.511 192.799 295.984 193.521 292.457 193.521Z" fill="white" stroke="black"/>
</svg>
