<svg width="28" height="21" viewBox="0 0 28 21" fill="none" xmlns="http://www.w3.org/2000/svg">
<path d="M1.81056 11.9134C1.45944 11.9134 1.16532 11.7948 0.928203 11.5577C0.691089 11.3206 0.57212 11.0261 0.571293 10.6741C0.570467 10.3222 0.689437 10.028 0.928203 9.79175C1.16697 9.55546 1.46109 9.43649 1.81056 9.43484H6.14801C6.49914 9.43484 6.79367 9.55381 7.03161 9.79175C7.26955 10.0297 7.38811 10.3238 7.38728 10.6741C7.38646 11.0244 7.26749 11.3189 7.03037 11.5577C6.79326 11.7965 6.49914 11.915 6.14801 11.9134H1.81056ZM8.31673 20.1855C7.28401 20.1855 6.40619 19.8241 5.68328 19.1011C4.96038 18.3782 4.59892 17.5004 4.59892 16.4677H3.04983C2.63674 16.4677 2.30627 16.3128 2.05842 16.003C1.81056 15.6932 1.73827 15.342 1.84155 14.9496L2.12038 13.7723H5.9931C6.86059 13.7723 7.59383 13.4728 8.19281 12.8738C8.79179 12.2748 9.09128 11.5416 9.09128 10.6741C9.09128 10.4056 9.0603 10.1577 8.99833 9.93054C8.93637 9.70334 8.85375 9.47614 8.75048 9.24895H9.92779C10.7953 9.24895 11.5285 8.94945 12.1275 8.35047C12.7265 7.75149 13.026 7.01826 13.026 6.15077C13.026 5.28328 12.7265 4.55004 12.1275 3.95106C11.5285 3.35208 10.7953 3.05259 9.92779 3.05259H5.21856L5.40445 2.30903C5.52838 1.7307 5.81258 1.26102 6.25707 0.899979C6.70155 0.538938 7.22287 0.358004 7.82103 0.357178H20.3996C20.8127 0.357178 21.1432 0.512087 21.391 0.821904C21.6389 1.13172 21.7112 1.48285 21.6079 1.87528L20.8024 5.31426H23.188C23.5804 5.31426 23.9522 5.40225 24.3033 5.57823C24.6545 5.7542 24.9436 5.99669 25.1708 6.30568L27.4944 9.37287C27.7216 9.66203 27.8662 9.97722 27.9282 10.3184C27.9902 10.6596 27.9902 11.0054 27.9282 11.3557L27.0917 15.4763C27.0297 15.7654 26.8851 16.003 26.6579 16.1889C26.4307 16.3748 26.1726 16.4677 25.8834 16.4677H24.4273C24.4273 17.5004 24.0658 18.3782 23.3429 19.1011C22.62 19.8241 21.7422 20.1855 20.7094 20.1855C19.6767 20.1855 18.7989 19.8241 18.076 19.1011C17.3531 18.3782 16.9916 17.5004 16.9916 16.4677H12.0345C12.0345 17.5004 11.6731 18.3782 10.9502 19.1011C10.2273 19.8241 9.34946 20.1855 8.31673 20.1855ZM4.28911 7.39004C3.93798 7.39004 3.64386 7.27107 3.40674 7.03313C3.16963 6.79519 3.05066 6.50107 3.04983 6.15077C3.04901 5.80047 3.16798 5.50635 3.40674 5.26841C3.64551 5.03047 3.93963 4.9115 4.28911 4.9115H9.86582C10.217 4.9115 10.5115 5.03047 10.7494 5.26841C10.9874 5.50635 11.1059 5.80047 11.1051 6.15077C11.1043 6.50107 10.9853 6.7956 10.7482 7.03437C10.5111 7.27313 10.217 7.39169 9.86582 7.39004H4.28911ZM8.31673 17.707C8.66786 17.707 8.96239 17.588 9.20033 17.3501C9.43827 17.1121 9.55683 16.818 9.55601 16.4677C9.55518 16.1174 9.43621 15.8233 9.1991 15.5853C8.96198 15.3474 8.66786 15.2284 8.31673 15.2284C7.96561 15.2284 7.67149 15.3474 7.43437 15.5853C7.19726 15.8233 7.07829 16.1174 7.07746 16.4677C7.07664 16.818 7.19561 17.1125 7.43437 17.3513C7.67314 17.5901 7.96726 17.7086 8.31673 17.707ZM20.7094 17.707C21.0606 17.707 21.3551 17.588 21.593 17.3501C21.831 17.1121 21.9495 16.818 21.9487 16.4677C21.9479 16.1174 21.8289 15.8233 21.5918 15.5853C21.3547 15.3474 21.0606 15.2284 20.7094 15.2284C20.3583 15.2284 20.0642 15.3474 19.8271 15.5853C19.59 15.8233 19.471 16.1174 19.4702 16.4677C19.4693 16.818 19.5883 17.1125 19.8271 17.3513C20.0658 17.5901 20.36 17.7086 20.7094 17.707ZM19.3772 11.5106H25.3567L25.4806 10.86L23.188 7.7928H20.2447L19.3772 11.5106Z" fill="white"/>
</svg>
