<svg width="21" height="35" viewBox="0 0 21 35" fill="none" xmlns="http://www.w3.org/2000/svg">
<path d="M10.4939 0.337402C5.23744 0.337402 0.929688 4.6323 0.929688 9.87425C0.929688 11.9053 1.57842 13.793 2.67626 15.3445L9.32659 26.8413C10.2579 28.0581 10.8771 27.827 11.6515 26.777L18.9869 14.2942C19.1348 14.0261 19.2511 13.7406 19.3524 13.449C19.8177 12.3147 20.0571 11.1004 20.0571 9.87425C20.0574 4.6323 15.7509 0.337402 10.4939 0.337402ZM10.4939 4.80589C13.3248 4.80589 15.5757 7.05171 15.5757 9.87425C15.5757 12.6968 13.3248 14.942 10.4939 14.942C7.66328 14.942 5.41136 12.6974 5.41136 9.87457C5.41136 7.05171 7.66328 4.80621 10.4935 4.80621" fill="#242760"/>
<path d="M15.2547 22L15.2438 22.0315L15.2534 22.0027L15.2547 22ZM7.30618 27.0372C4.08959 27.5362 1.83984 28.73 1.83984 30.4873C1.83984 32.8543 5.59883 34.773 10.9481 34.773C16.2974 34.773 20.0564 32.8543 20.0564 30.4873C20.0564 28.73 17.8069 27.5362 14.5905 27.0372L14.1449 27.8702C16.5691 28.2395 18.2347 29.0155 18.2347 29.916C18.2347 31.1785 14.9724 32.2017 10.9481 32.2017C6.92386 32.2017 3.6615 31.1785 3.6615 29.916C3.66127 29.0185 5.31602 28.2433 7.7477 27.8725L7.30618 27.0372Z" fill="#242760"/>
</svg>
