<svg width="30" height="28" viewBox="0 0 30 28" fill="none" xmlns="http://www.w3.org/2000/svg">
<path d="M7.68972 0C8.50585 0 9.28855 0.368749 9.86563 1.02513C10.4427 1.6815 10.7669 2.57174 10.7669 3.5C10.7669 4.42826 10.4427 5.3185 9.86563 5.97487C9.28855 6.63125 8.50585 7 7.68972 7C6.8736 7 6.0909 6.63125 5.51382 5.97487C4.93673 5.3185 4.61253 4.42826 4.61253 3.5C4.61253 2.57174 4.93673 1.6815 5.51382 1.02513C6.0909 0.368749 6.8736 0 7.68972 0ZM4.22788 26.25V21.875H3.37203C2.84795 21.875 2.47772 21.2898 2.6412 20.7211L4.13652 15.6133L2.7614 17.6805C2.24693 18.4516 1.2805 18.5992 0.607363 18.0195C-0.0657738 17.4398 -0.200401 16.3406 0.30926 15.5695L3.14124 11.3203C4.21826 9.70156 5.90591 8.75 7.68972 8.75C9.47354 8.75 11.1612 9.70156 12.2382 11.3203L15.0702 15.5695C15.5847 16.3406 15.45 17.4398 14.7721 18.0195C14.0941 18.5992 13.1277 18.4516 12.618 17.6805L11.2429 15.6133L12.7383 20.7211C12.9065 21.2898 12.5315 21.875 12.0074 21.875H11.1516V26.25C11.1516 27.218 10.464 28 9.61297 28C8.76194 28 8.07437 27.218 8.07437 26.25V21.875H7.30508V26.25C7.30508 27.218 6.61751 28 5.76648 28C4.91544 28 4.22788 27.218 4.22788 26.25ZM23.0757 0C23.8918 0 24.6745 0.368749 25.2516 1.02513C25.8287 1.6815 26.1529 2.57174 26.1529 3.5C26.1529 4.42826 25.8287 5.3185 25.2516 5.97487C24.6745 6.63125 23.8918 7 23.0757 7C22.2596 7 21.4769 6.63125 20.8998 5.97487C20.3227 5.3185 19.9985 4.42826 19.9985 3.5C19.9985 2.57174 20.3227 1.6815 20.8998 1.02513C21.4769 0.368749 22.2596 0 23.0757 0ZM22.6911 21V26.25C22.6911 27.218 22.0035 28 21.1525 28C20.3014 28 19.6139 27.218 19.6139 26.25V16.4336L18.9936 17.5547C18.5417 18.375 17.5896 18.6156 16.8732 18.1016C16.1568 17.5875 15.9405 16.5047 16.3924 15.6898L18.8782 11.2C19.7245 9.67422 21.2005 8.74453 22.7824 8.74453H23.3738C24.9605 8.74453 26.4366 9.66875 27.278 11.2L29.7638 15.6953C30.2158 16.5156 29.9994 17.593 29.283 18.107C28.5666 18.6211 27.6146 18.375 27.1626 17.5602L26.5376 16.4336V26.25C26.5376 27.218 25.85 28 24.999 28C24.1479 28 23.4604 27.218 23.4604 26.25V21H22.6911Z" fill="#C7C6C5"/>
</svg>
