<svg width="26" height="24" viewBox="0 0 26 24" fill="none" xmlns="http://www.w3.org/2000/svg">
<path d="M10.7724 16.1929L14.1521 17.3195C14.1521 17.3195 22.6014 15.6296 23.728 15.6296C24.8546 15.6296 24.8546 16.7562 23.728 17.8828C22.6014 19.0094 18.6584 22.3891 15.2787 22.3891C11.8989 22.3891 9.6458 20.6992 7.39264 20.6992C5.13949 20.6992 1.75977 20.6992 1.75977 20.6992" stroke="white" stroke-width="2.70378" stroke-linecap="round" stroke-linejoin="round"/>
<path d="M1.75977 13.9385C2.88634 12.8119 5.13949 11.1221 7.39264 11.1221C9.64579 11.1221 14.997 13.3752 15.842 14.5018C16.6869 15.6284 14.1521 17.3182 14.1521 17.3182" stroke="white" stroke-width="2.70378" stroke-linecap="round" stroke-linejoin="round"/>
<path d="M8.51953 7.74421V3.2379C8.51953 2.61571 9.0239 2.11133 9.64611 2.11133H23.165C23.7872 2.11133 24.2916 2.61571 24.2916 3.2379V12.2505" stroke="white" stroke-width="2.70378" stroke-linecap="round" stroke-linejoin="round"/>
<path d="M19.2217 2.11133H13.5889V7.18092H19.2217V2.11133Z" fill="#E6ECFA" stroke="white" stroke-width="2.70378" stroke-linecap="round" stroke-linejoin="round"/>
</svg>
